<svg xmlns="http://www.w3.org/2000/svg" viewBox="0 0 1200 1200" width="1200" height="1200">
  <g transform="matrix(0.1, 0, 0, -0.1, 0, 1200)" fill="#000000" stroke="none">
    <path d="M 5707.59 11734.415 C 4920.14 11697.06 4143.149 11495.341 3443.857 11145.695 C 1647.812 10246.179 456.925 8502.432 276.125 6506.163 C 253.711 6265.594 253.711 5730.667 276.125 5490.098 C 377.732 4358.979 805.076 3293.605 1508.85 2416.502 C 2495.031 1185.27 3923.5 417.244 5490.929 275.294 C 5731.497 252.882 6266.425 252.882 6506.994 275.294 C 7587.31 372.419 8595.904 762.407 9464.042 1416.873 C 10752.053 2388.111 11575.365 3873.36 11721.798 5490.098 C 11757.659 5875.606 11741.223 6446.395 11682.948 6849.832 C 11535.022 7885.322 11050.896 8940.236 10356.088 9741.135 C 9728.518 10464.334 8990.376 10990.298 8120.745 11336.954 C 7352.718 11643.269 6554.808 11774.76 5707.59 11734.415 Z M 6678.829 11348.908 C 7207.78 11277.186 7654.55 11156.155 8117.756 10957.425 C 9163.706 10509.16 10039.314 9745.618 10623.551 8771.39 C 11019.518 8110.948 11257.098 7416.139 11358.704 6618.229 C 11396.06 6325.364 11396.06 5670.898 11358.704 5378.032 C 11255.603 4568.169 11024 3897.267 10611.598 3211.423 C 10339.651 2758.676 9967.591 2307.424 9597.027 1983.18 C 8725.9 1218.143 7769.604 787.809 6619.06 638.388 C 6326.195 601.033 5673.223 601.033 5378.863 638.388 C 4234.296 784.821 3272.022 1219.638 2400.896 1983.18 C 2030.331 2307.424 1658.273 2758.676 1386.325 3211.423 C 973.923 3897.267 742.319 4568.169 639.219 5378.032 C 601.864 5670.898 601.864 6325.364 639.219 6618.229 C 778.181 7709.004 1181.617 8636.912 1877.922 9473.67 C 2329.174 10016.07 2941.801 10498.701 3587.301 10821.452 C 4220.848 11139.719 4852.899 11311.552 5640.35 11383.275 C 5818.162 11399.711 6463.662 11377.298 6678.829 11348.908 Z" style="fill: rgb(119, 140, 75);"/>
    <path d="M 5647.822 11323.507 C 5084.504 11265.233 4685.548 11183.051 4273.145 11042.594 C 3602.244 10815.474 2935.824 10416.519 2394.919 9923.429 C 1727.006 9310.801 1195.066 8484.502 921.625 7625.329 C 574.967 6542.024 586.921 5349.642 954.498 4272.314 C 1233.915 3449.003 1771.832 2634.657 2414.344 2056.396 C 3258.575 1295.841 4283.604 831.141 5401.276 699.65 C 5698.625 663.79 6299.298 663.79 6596.647 699.65 C 7714.319 831.141 8739.348 1295.841 9583.579 2056.396 C 10226.09 2634.657 10764.008 3449.003 11043.425 4272.314 C 11411.001 5349.642 11422.956 6542.024 11076.298 7625.329 C 10749.065 8650.359 10079.658 9591.713 9217.497 10243.191 C 8645.213 10673.524 8041.55 10970.873 7381.109 11145.695 C 6901.466 11271.209 6568.257 11317.529 6073.672 11325.001 C 5871.953 11326.495 5680.695 11326.495 5647.822 11323.507 Z M 6462.168 11212.935 C 7869.717 11088.915 9166.693 10394.107 10064.716 9285.399 C 10330.686 8958.167 10501.025 8692.197 10690.791 8306.69 C 11043.425 7590.962 11206.294 6930.52 11224.225 6140.08 C 11239.167 5475.156 11165.951 4964.135 10973.197 4372.427 C 10524.934 3003.727 9541.741 1892.032 8222.351 1262.97 C 7744.203 1034.354 7191.344 874.474 6611.589 795.28 C 6420.33 769.879 5577.593 769.879 5386.333 795.28 C 4361.304 934.242 3487.189 1306.302 2711.693 1932.377 C 2396.414 2186.392 2160.328 2423.973 1901.829 2748.217 C 1260.812 3550.609 869.327 4536.79 782.663 5560.326 C 758.756 5853.192 773.697 6456.854 812.547 6707.882 C 908.177 7330.969 1045.645 7776.245 1307.131 8306.69 C 1727.006 9158.392 2333.657 9844.235 3130.072 10371.693 C 3835.341 10839.382 4687.042 11138.224 5514.836 11211.44 C 5712.073 11229.372 6264.931 11229.372 6462.168 11212.935 Z" style="fill: rgb(119, 140, 75);"/>
    <path d="M 5774.83 11174.085 C 5260.82 11145.695 4752.787 11050.066 4317.972 10899.15 C 3334.779 10558.469 2477.101 9932.394 1852.52 9098.623 C 1511.839 8642.889 1244.374 8128.879 1068.058 7587.974 C 782.663 6712.364 745.308 5676.875 964.957 4777.359 C 1362.418 3144.184 2527.904 1805.368 4093.839 1182.281 C 5320.589 693.673 6735.608 701.145 7957.875 1203.2 C 9493.926 1832.264 10639.987 3165.103 11032.966 4777.359 C 11252.615 5676.875 11215.26 6712.364 10929.865 7587.974 C 10507.003 8887.94 9591.049 9969.749 8382.231 10594.331 C 7657.539 10969.378 6943.304 11151.672 6111.027 11172.592 C 5979.537 11177.074 5828.621 11177.074 5774.83 11174.085 Z M 2852.148 7319.016 C 2970.191 7281.66 3070.304 7184.536 3115.13 7063.504 C 3158.462 6951.439 3180.875 6667.538 3161.451 6506.163 C 3143.52 6367.201 3083.751 6241.687 2997.087 6156.518 L 2937.319 6098.243 L 3040.419 5999.625 C 3127.083 5915.949 3146.508 5887.559 3165.933 5815.837 C 3200.3 5694.805 3216.736 5542.396 3218.231 5330.218 C 3219.725 5121.028 3201.795 5005.973 3159.956 4949.193 C 3143.52 4926.78 3130.072 4896.896 3130.072 4881.954 C 3130.072 4847.586 2991.11 4710.119 2923.871 4675.752 C 2861.114 4644.374 2695.256 4608.513 2611.581 4608.513 C 2577.213 4608.513 2517.445 4618.972 2478.595 4632.42 C 2414.344 4653.338 2403.885 4653.338 2347.105 4632.42 C 2232.05 4589.088 2084.123 4611.501 2085.617 4672.763 C 2085.617 4690.694 2081.134 5291.368 2075.157 6007.096 C 2066.193 7221.891 2067.686 7310.05 2091.593 7333.957 C 2114.007 7356.371 2151.363 7357.864 2441.24 7353.382 C 2710.198 7348.9 2778.932 7344.417 2852.148 7319.016 Z M 4444.979 7327.98 C 4476.358 7296.602 4482.336 7212.927 4458.427 7162.123 C 4450.957 7148.675 4453.945 7130.745 4462.911 7121.779 C 4476.358 7108.331 4474.864 7094.883 4462.911 7066.493 L 4444.979 7029.138 L 4168.551 7029.138 L 3892.121 7029.138 L 3890.627 6973.852 C 3889.132 6869.257 3889.132 6304.444 3890.627 6241.687 C 3892.121 6175.942 3923.5 6152.035 3942.924 6199.85 C 3948.902 6217.78 3983.268 6222.262 4116.253 6222.262 C 4271.651 6222.262 4283.604 6220.769 4317.972 6184.907 C 4350.844 6152.035 4355.327 6135.598 4355.327 6029.509 C 4355.327 5862.158 4356.822 5863.652 4099.816 5863.652 L 3892.121 5863.652 L 3892.121 5531.936 C 3892.121 5348.148 3896.604 5143.44 3902.58 5076.201 L 3911.545 4952.182 L 4181.998 4952.182 C 4373.258 4952.182 4459.922 4946.205 4471.875 4934.251 C 4483.829 4922.298 4489.806 4865.518 4489.806 4777.359 L 4489.806 4639.892 L 4434.52 4624.949 C 4403.142 4617.478 4196.94 4608.513 3977.291 4605.524 L 3575.348 4601.042 L 3548.451 4635.408 C 3521.556 4666.787 3520.062 4711.613 3520.062 5389.986 C 3520.062 5785.953 3514.085 6352.26 3506.614 6648.114 C 3491.671 7236.834 3494.66 7311.544 3530.521 7339.934 C 3548.451 7353.382 3663.506 7357.864 3984.762 7357.864 C 4397.165 7357.864 4416.59 7356.371 4444.979 7327.98 Z M 5519.319 7342.923 C 5534.261 7335.452 5552.192 7317.521 5558.168 7302.579 C 5567.134 7278.671 5597.018 7085.918 5640.35 6782.593 C 5665.752 6609.264 5668.74 6580.874 5692.648 6371.685 C 5706.096 6261.112 5738.968 6008.59 5767.359 5811.354 C 5818.162 5446.766 5833.103 5340.677 5873.448 5049.305 C 5927.239 4650.351 5925.746 4665.292 5898.849 4635.408 C 5862.989 4595.065 5637.361 4596.558 5597.018 4636.903 C 5559.663 4674.258 5538.744 4751.957 5529.779 4877.471 C 5525.295 4931.262 5514.836 5014.939 5507.365 5064.248 C 5498.401 5113.557 5484.952 5191.256 5478.976 5236.083 L 5468.515 5318.263 L 5266.798 5318.263 L 5066.572 5318.263 L 5054.618 5265.967 C 5048.642 5237.576 5026.229 5086.66 5003.815 4929.768 C 4973.931 4722.072 4957.495 4641.385 4939.565 4627.937 C 4911.174 4605.524 4716.926 4602.535 4664.628 4621.96 C 4616.814 4639.892 4603.366 4681.729 4625.78 4737.015 C 4634.745 4760.922 4643.71 4837.127 4646.698 4907.355 C 4651.182 5038.846 4684.053 5251.024 4724.398 5407.916 C 4736.351 5457.225 4746.81 5522.971 4745.317 5554.35 C 4742.328 5639.519 4793.131 5977.211 4828.992 6107.209 C 4831.981 6120.657 4846.923 6132.61 4860.371 6132.61 C 4881.29 6132.61 4881.29 6134.104 4857.383 6152.035 C 4834.969 6168.471 4833.476 6181.919 4848.417 6274.56 C 4857.383 6332.835 4881.29 6500.186 4902.209 6648.114 C 4987.379 7250.282 5000.827 7326.486 5029.217 7344.417 C 5057.607 7362.348 5486.447 7360.853 5519.319 7342.923 Z M 6483.087 7333.957 C 6509.982 7307.062 6508.489 7387.749 6512.971 5975.718 C 6515.959 4977.584 6515.959 4986.548 6611.589 4935.745 C 6711.701 4881.954 6843.192 4911.838 6891.007 4999.996 C 6916.409 5046.317 6917.902 5121.028 6920.891 6140.08 C 6922.386 6740.755 6928.362 7253.27 6932.845 7278.671 C 6944.798 7344.417 6976.177 7357.864 7127.092 7357.864 C 7246.629 7357.864 7255.595 7354.876 7267.549 7323.498 C 7275.02 7305.568 7282.49 6772.134 7285.479 6140.08 L 7291.456 4989.537 L 7245.135 4892.413 C 7182.378 4759.427 7119.621 4692.188 7010.544 4638.397 C 6758.022 4517.365 6487.569 4557.71 6293.322 4748.968 C 6230.565 4811.725 6190.22 4883.448 6163.325 4982.066 C 6149.877 5031.375 6143.9 5348.148 6139.417 6180.425 C 6134.935 7183.042 6136.429 7314.532 6157.349 7335.452 C 6190.22 7368.325 6450.214 7368.325 6483.087 7333.957 Z M 8658.661 7329.475 C 8679.58 7290.625 8678.086 7114.308 8655.673 7066.493 C 8646.707 7045.574 8628.777 7029.138 8615.329 7027.644 C 8601.881 7027.644 8530.159 7027.644 8456.942 7029.138 C 8382.231 7030.633 8310.51 7026.149 8295.567 7020.172 C 8271.66 7011.208 8270.166 6935.003 8271.66 5842.733 C 8271.66 5201.715 8271.66 4668.281 8271.66 4657.822 C 8268.671 4629.431 8182.007 4608.513 8068.447 4608.513 C 7889.142 4608.513 7905.577 4523.342 7899.601 5463.202 C 7895.118 6382.144 7886.153 6876.728 7872.704 6955.921 C 7865.233 7009.713 7863.74 7011.208 7780.064 7020.172 C 7733.742 7024.656 7670.986 7023.161 7642.596 7014.196 C 7511.105 6976.84 7488.691 6994.771 7469.268 7160.629 C 7457.313 7272.695 7469.268 7324.993 7512.6 7342.923 C 7530.53 7350.394 7792.017 7356.371 8093.848 7356.371 C 8621.306 7357.864 8643.718 7356.371 8658.661 7329.475 Z M 9124.856 7332.463 C 9153.245 7301.084 9163.706 7268.212 9181.636 7160.629 C 9189.107 7117.297 9218.991 6967.876 9247.381 6827.419 C 9326.575 6452.372 9389.332 6144.564 9393.814 6104.22 C 9399.791 6056.405 9432.664 6045.945 9441.628 6090.772 C 9446.112 6110.196 9473.007 6262.607 9502.892 6431.453 C 9532.776 6600.299 9576.108 6839.373 9600.015 6961.899 C 9623.922 7085.918 9647.83 7211.432 9653.806 7244.305 C 9670.243 7341.428 9700.127 7357.864 9851.043 7357.864 C 9937.707 7357.864 9991.5 7350.394 10009.43 7338.441 C 10042.303 7314.532 10046.785 7341.428 9925.754 6857.303 C 9885.411 6692.939 9849.549 6539.036 9848.055 6513.634 C 9842.077 6456.854 9815.182 6340.306 9718.058 5953.304 L 9640.36 5646.991 L 9631.394 5141.947 C 9620.935 4547.249 9637.371 4593.57 9434.157 4593.57 C 9332.552 4593.57 9301.173 4598.053 9284.736 4617.478 C 9268.3 4636.903 9260.829 4747.474 9251.864 5077.696 L 9238.416 5512.511 L 9172.67 5781.47 C 9136.809 5929.397 9077.04 6168.471 9039.685 6311.915 C 8947.044 6664.55 8812.566 7203.961 8802.105 7263.729 C 8788.657 7341.428 8818.542 7357.864 8970.951 7357.864 C 9077.04 7357.864 9106.925 7353.382 9124.856 7332.463 Z" style="fill: rgb(119, 140, 75);"/>
    <path d="M 2412.849 6981.323 C 2412.849 6958.91 2417.333 6937.99 2424.803 6933.508 C 2444.228 6921.555 2447.217 6447.888 2427.792 6423.981 C 2417.333 6410.533 2415.838 6401.569 2427.792 6394.097 C 2435.263 6389.615 2442.735 6355.248 2442.735 6319.387 C 2442.735 6259.618 2447.217 6252.148 2481.583 6243.182 C 2538.363 6228.239 2663.877 6247.664 2714.681 6277.549 C 2740.082 6292.491 2774.45 6323.869 2792.38 6346.283 C 2820.77 6385.131 2823.759 6409.04 2823.759 6633.172 C 2823.759 6858.798 2820.77 6881.21 2792.38 6920.06 C 2734.105 6996.265 2672.843 7021.667 2536.87 7021.667 L 2412.849 7021.667 L 2412.849 6981.323 Z" style="fill: rgb(119, 140, 75);"/>
    <path d="M 2666.866 5909.972 C 2666.866 5901.007 2617.557 5893.536 2559.283 5890.547 L 2450.205 5886.065 L 2450.205 5430.33 L 2450.205 4974.595 L 2596.638 4974.595 C 2743.071 4974.595 2744.565 4974.595 2786.403 5020.916 C 2846.171 5088.155 2861.114 5182.29 2852.148 5424.354 C 2843.184 5682.851 2826.746 5762.045 2774.45 5827.79 C 2729.623 5884.57 2666.866 5932.386 2666.866 5909.972 Z" style="fill: rgb(119, 140, 75);"/>
    <path d="M 5253.349 6691.446 C 5242.889 6612.252 5221.971 6498.692 5205.534 6437.429 C 5189.098 6376.167 5180.132 6310.421 5186.109 6290.996 C 5190.593 6271.572 5187.604 6207.321 5178.639 6146.058 C 5139.789 5878.594 5117.375 5681.358 5124.847 5667.91 C 5135.306 5651.473 5401.276 5649.98 5428.172 5666.416 C 5441.62 5675.381 5443.114 5697.794 5432.655 5760.551 C 5407.253 5898.018 5372.887 6162.494 5356.449 6334.329 C 5347.485 6425.476 5334.037 6552.484 5326.566 6618.229 C 5293.693 6885.694 5281.739 6897.647 5253.349 6691.446 Z" style="fill: rgb(119, 140, 75);"/>
  </g>
</svg>